# xmcd
# Copyright (C) 1995-1998 Ti Kan
#
# Track frame offsets:
#       150
#       11071
#       25320
#       39994
#       52702
#       68643
#       83214
#       94839
#       108855
#       125871
#       141537
#       155551
#       169594
#       184604
#       198898
#
# Disc length: 2839 seconds
#
# Revision: 0
# Processed by: cddbd v1.5.2PL0 Copyright (c) Steve Scherf et al.
# Submitted via: CD-Transfer v1.0
#
DISCID=c20b150f
DTITLE=Alpenland/Judith Und Mel - 
DYEAR=1900
DGENRE=
TTITLE0=Alles Klar, Alles Klar
TTITLE1=Ich Habe Mich Heut' Nacht An Dich Verloren
TTITLE2=Sag's Mit Einem Kuss
TTITLE3=Ich Traf Ein Paar Freunde
TTITLE4=Die Zehn Gebote Der Liebe
TTITLE5=Perle Der Heimat
TTITLE6=Traumschiff Der Liebe
TTITLE7=Das Nordlicht
TTITLE8=Hochzeits-Lied
TTITLE9=Walzer Der Liebe
TTITLE10=In Deinem Arm Bin Ich Dem Himmel Nah
TTITLE11=Das Gesicht Ist Der Spiegel Der Seele
TTITLE12=Die Liebe - Die Liebe
TTITLE13=Adieu Mein Kapitän
TTITLE14=Danke Für Alles
EXTD=
EXTT0=
EXTT1=
EXTT2=
EXTT3=
EXTT4=
EXTT5=
EXTT6=
EXTT7=
EXTT8=
EXTT9=
EXTT10=
EXTT11=
EXTT12=
EXTT13=
EXTT14=
PLAYORDER=
